# xmcd CD database file
#
# Track frame offsets:
#	150
#	18170
#	36175
#	53045
#
# Disc length: 929 seconds
#
# Revision: 0
# Processed by: cddbd v1.5PL3 Copyright (c) Steve Scherf et al.
# Submitted via: CDex 1.50
#
DISCID=26039f04
DTITLE=宍戸留美 - Panic in my room
DYEAR=1991
DGENRE=JPop
TTITLE0=Panic in my room
TTITLE1=Panic in my room (ｶﾗｵｹ)
TTITLE2=コンビニ天国
TTITLE3=コンビニ天国 (ｶﾗｵｹ)
EXTD=YEAR: 1991/01/01
EXTT0=
EXTT1=
EXTT2=
EXTT3=
PLAYORDER=
